<svg width="16" height="20" viewBox="0 0 16 20" fill="none" xmlns="http://www.w3.org/2000/svg">
<path d="M1.33325 3.33332V16.6667C1.33325 17.1087 1.50885 17.5326 1.82141 17.8452C2.13397 18.1577 2.55789 18.3333 2.99992 18.3333H12.9999C13.4419 18.3333 13.8659 18.1577 14.1784 17.8452C14.491 17.5326 14.6666 17.1087 14.6666 16.6667V6.95166C14.6666 6.72962 14.6222 6.50983 14.536 6.30519C14.4499 6.10055 14.3237 5.91519 14.1649 5.75999L10.4649 2.14166C10.1536 1.8372 9.73539 1.66671 9.29992 1.66666H2.99992C2.55789 1.66666 2.13397 1.84225 1.82141 2.15481C1.50885 2.46737 1.33325 2.8913 1.33325 3.33332V3.33332Z" stroke="#109704" stroke-width="1.5" stroke-linecap="round" stroke-linejoin="round"/>
<path d="M5.5 10.8333H10.5" stroke="#109704" stroke-width="1.5" stroke-linecap="round" stroke-linejoin="round"/>
<path d="M5.5 14.1667H8" stroke="#109704" stroke-width="1.5" stroke-linecap="round" stroke-linejoin="round"/>
<path d="M9.6665 1.66666V4.99999C9.6665 5.44202 9.8421 5.86594 10.1547 6.1785C10.4672 6.49106 10.8911 6.66666 11.3332 6.66666H14.6665" stroke="#109704" stroke-width="1.5" stroke-linejoin="round"/>
</svg>
